{
  "accessors": [
    {
      "bufferView": 2,
      "componentType": 5126,
      "count": 58894,
      "max": [
        0.5946000218391418,
        0.5120999813079834,
        0.44670000672340393
      ],
      "min": [
        -0.5942999720573425,
        -0.5113000273704529,
        -0.44620001316070557
      ],
      "type": "VEC3"
    },
    {
      "bufferView": 2,
      "byteOffset": 706728,
      "componentType": 5126,
      "count": 58894,
      "max": [
        0.9999492168426514,
        0.9999903440475464,
        0.9999873638153076
      ],
      "min": [
        -0.9999681711196899,
        -0.9999555349349976,
        -0.9997981190681458
      ],
      "type": "VEC3"
    },
    {
      "bufferView": 1,
      "componentType": 5126,
      "count": 58894,
      "max": [
        0.9980999827384949,
        0.998199999332428
      ],
      "min": [
        0.0019000000320374966,
        0.0017999999690800905
      ],
      "type": "VEC2"
    },
    {
      "bufferView": 0,
      "componentType": 5125,
      "count": 155805,
      "type": "SCALAR"
    },
    {
      "bufferView": 2,
      "byteOffset": 1413456,
      "componentType": 5126,
      "count": 1647,
      "max": [
        0.5830000042915344,
        0.5095000267028809,
        0.4334000051021576
      ],
      "min": [
        -0.5896000266075134,
        -0.5081999897956848,
        -0.44679999351501465
      ],
      "type": "VEC3"
    },
    {
      "bufferView": 2,
      "byteOffset": 1433220,
      "componentType": 5126,
      "count": 1647,
      "max": [
        0.9993618726730347,
        0.9997767806053162,
        0.9995524287223816
      ],
      "min": [
        -0.9990513324737549,
        -0.9983159899711609,
        -0.9959529638290405
      ],
      "type": "VEC3"
    },
    {
      "bufferView": 1,
      "byteOffset": 471152,
      "componentType": 5126,
      "count": 1647,
      "max": [
        0.9933000206947327,
        0.9980999827384949
      ],
      "min": [
        0.00430000014603138,
        0.00279999990016222
      ],
      "type": "VEC2"
    },
    {
      "bufferView": 0,
      "byteOffset": 623220,
      "componentType": 5125,
      "count": 2343,
      "type": "SCALAR"
    }
  ],
  "asset": {
    "extras": {
      "author": "Asgarde (https://sketchfab.com/Asgarde)",
      "license": "CC-BY-4.0 (http://creativecommons.org/licenses/by/4.0/)",
      "source": "https://sketchfab.com/3d-models/luville-santas-shop-cb7cb8681daf4e22b78239bab142b01c",
      "title": "LuVille Santa's Shop"
    },
    "generator": "Sketchfab-12.68.0",
    "version": "2.0"
  },
  "bufferViews": [
    {
      "buffer": 0,
      "byteLength": 632592,
      "name": "floatBufferViews",
      "target": 34963
    },
    {
      "buffer": 0,
      "byteLength": 484328,
      "byteOffset": 632592,
      "byteStride": 8,
      "name": "floatBufferViews",
      "target": 34962
    },
    {
      "buffer": 0,
      "byteLength": 1452984,
      "byteOffset": 1116920,
      "byteStride": 12,
      "name": "floatBufferViews",
      "target": 34962
    }
  ],
  "buffers": [
    {
      "byteLength": 2569904,
      "uri": "scene.bin"
    }
  ],
  "extensionsRequired": [
    "KHR_materials_pbrSpecularGlossiness"
  ],
  "extensionsUsed": [
    "KHR_materials_pbrSpecularGlossiness"
  ],
  "images": [
    {
      "uri": "TextureAtlas_0_diffuse.png"
    }
  ],
  "materials": [
    {
      "doubleSided": true,
      "extensions": {
        "KHR_materials_pbrSpecularGlossiness": {
          "diffuseFactor": [
            1.0,
            1.0,
            1.0,
            1.0
          ],
          "diffuseTexture": {
            "index": 0
          },
          "glossinessFactor": 0.4,
          "specularFactor": [
            0.0,
            0.0,
            0.0
          ]
        }
      },
      "name": "TextureAtlas_0"
    }
  ],
  "meshes": [
    {
      "name": "Object_0",
      "primitives": [
        {
          "attributes": {
            "NORMAL": 1,
            "POSITION": 0,
            "TEXCOORD_0": 2
          },
          "indices": 3,
          "material": 0,
          "mode": 4
        }
      ]
    },
    {
      "name": "Object_1",
      "primitives": [
        {
          "attributes": {
            "NORMAL": 5,
            "POSITION": 4,
            "TEXCOORD_0": 6
          },
          "indices": 7,
          "material": 0,
          "mode": 4
        }
      ]
    }
  ],
  "nodes": [
    {
      "children": [
        1
      ],
      "matrix": [
        1.0,
        0.0,
        0.0,
        0.0,
        0.0,
        2.220446049250313e-16,
        -1.0,
        0.0,
        0.0,
        1.0,
        2.220446049250313e-16,
        0.0,
        0.0,
        0.0,
        0.0,
        1.0
      ],
      "name": "Sketchfab_model"
    },
    {
      "children": [
        2,
        3
      ],
      "name": "MaisonLowPoly.obj.cleaner.materialmerger.gles"
    },
    {
      "mesh": 0,
      "name": "Object_2"
    },
    {
      "mesh": 1,
      "name": "Object_3"
    }
  ],
  "samplers": [
    {
      "magFilter": 9729,
      "minFilter": 9987,
      "wrapS": 10497,
      "wrapT": 10497
    }
  ],
  "scene": 0,
  "scenes": [
    {
      "name": "Sketchfab_Scene",
      "nodes": [
        0
      ]
    }
  ],
  "textures": [
    {
      "sampler": 0,
      "source": 0
    }
  ]
}
